<?xml version="1.0" encoding="UTF-8"?>
<!DOCTYPE svg PUBLIC "-//W3C//DTD SVG 1.1//EN" "http://www.w3.org/Graphics/SVG/1.1/DTD/svg11.dtd">
<!-- Creator: CorelDRAW -->
<svg xmlns="http://www.w3.org/2000/svg" xml:space="preserve" width="720px" height="116px" version="1.1" style="shape-rendering:geometricPrecision; text-rendering:geometricPrecision; image-rendering:optimizeQuality; fill-rule:evenodd; clip-rule:evenodd"
viewBox="0 0 499.83 80.6"
 xmlns:xlink="http://www.w3.org/1999/xlink"
 xmlns:xodm="http://www.corel.com/coreldraw/odm/2003">
 <defs>
  <style type="text/css">
   <![CDATA[
    .fil0 {fill:#FEFEFE;fill-rule:nonzero}
    .fil1 {fill:url(#id0)}
    .fil2 {fill:url(#id1)}
   ]]>
  </style>
  <linearGradient id="id0" gradientUnits="userSpaceOnUse" x1="99.58" y1="74.66" x2="61.66" y2="7.6">
   <stop offset="0" style="stop-opacity:1; stop-color:#3E5BA4"/>
   <stop offset="0.368627" style="stop-opacity:1; stop-color:#3B5298"/>
   <stop offset="0.709804" style="stop-opacity:1; stop-color:#2F3166"/>
   <stop offset="1" style="stop-opacity:1; stop-color:#27294A"/>
  </linearGradient>
  <linearGradient id="id1" gradientUnits="userSpaceOnUse" x1="38.52" y1="0.02" x2="40.91" y2="80.58">
   <stop offset="0" style="stop-opacity:1; stop-color:#E84E46"/>
   <stop offset="0.321569" style="stop-opacity:1; stop-color:#E02824"/>
   <stop offset="0.639216" style="stop-opacity:1; stop-color:#D72124"/>
   <stop offset="1" style="stop-opacity:1; stop-color:#A02720"/>
  </linearGradient>
 </defs>
 <g id="Layer_x0020_1">
  <metadata id="CorelCorpID_0Corel-Layer"/>
  <g id="_2400881562480">
   <path class="fil0" d="M120.54 57.27l12.63 -33.07 8.94 0 12.63 33.07 -8.63 0 -2.98 -7.5 -11.04 0 -2.93 7.5 -8.62 0zm12.68 -13.61l8.78 0 -4.41 -11.5 -4.37 11.5zm39 13.61l0 -33.07 8.27 0 0 33.07 -8.27 0zm26.78 0l0 -33.07 16.54 0c3.9,0 6.78,1.02 8.63,3.08 1.85,2.05 2.77,4.81 2.77,8.27 0,2.22 -0.56,4.17 -1.69,5.85 -1.13,1.68 -2.67,2.93 -4.63,3.75 0.48,0.38 0.87,0.8 1.16,1.26 0.29,0.46 0.61,1.1 0.95,1.93l3.9 8.93 -8.63 0 -3.69 -8.42c-0.31,-0.72 -0.71,-1.24 -1.18,-1.57 -0.48,-0.32 -1.17,-0.49 -2.06,-0.49l-3.8 0 0 10.48 -8.27 0zm8.27 -16.84l6.11 0c1.61,0 2.87,-0.41 3.78,-1.21 0.9,-0.81 1.36,-2.03 1.36,-3.67 0,-3.32 -1.59,-4.98 -4.78,-4.98l-6.47 0 0 9.86zm37.15 16.84l0 -33.07 16.28 0c2.64,0 4.81,0.52 6.53,1.56 1.71,1.05 2.98,2.46 3.82,4.24 0.84,1.78 1.26,3.78 1.26,6.01 0,2.26 -0.48,4.26 -1.44,6.01 -0.96,1.74 -2.32,3.11 -4.08,4.08 -1.76,0.98 -3.86,1.46 -6.29,1.46l-7.81 0 0 9.71 -8.27 0zm8.27 -16.07l5.96 0c1.75,0 3.06,-0.48 3.93,-1.44 0.87,-0.96 1.31,-2.23 1.31,-3.8 0,-1.71 -0.4,-3.04 -1.21,-3.98 -0.8,-0.94 -2.06,-1.41 -3.77,-1.41l-6.22 0 0 10.63zm51.59 16.59c-5.38,0 -9.47,-1.37 -12.28,-4.11 -2.81,-2.74 -4.21,-7.01 -4.21,-12.79 0,-6.13 1.4,-10.53 4.21,-13.2 2.81,-2.67 6.9,-4.01 12.28,-4.01 5.37,0 9.46,1.34 12.27,4.01 2.81,2.67 4.21,7.07 4.21,13.2 0,5.78 -1.4,10.05 -4.21,12.79 -2.81,2.74 -6.9,4.11 -12.27,4.11zm0 -7.04c2.77,0 4.8,-0.8 6.08,-2.39 1.29,-1.59 1.93,-4.08 1.93,-7.47 0,-3.7 -0.64,-6.31 -1.93,-7.83 -1.28,-1.53 -3.31,-2.29 -6.08,-2.29 -2.81,0 -4.86,0.76 -6.14,2.29 -1.28,1.52 -1.93,4.13 -1.93,7.83 0,3.39 0.65,5.88 1.93,7.47 1.28,1.59 3.33,2.39 6.14,2.39zm33.97 6.52l0 -33.07 16.53 0c3.91,0 6.78,1.02 8.63,3.08 1.85,2.05 2.77,4.81 2.77,8.27 0,2.22 -0.56,4.17 -1.69,5.85 -1.13,1.68 -2.67,2.93 -4.62,3.75 0.48,0.38 0.86,0.8 1.15,1.26 0.29,0.46 0.61,1.1 0.95,1.93l3.91 8.93 -8.63 0 -3.7 -8.42c-0.31,-0.72 -0.7,-1.24 -1.18,-1.57 -0.48,-0.32 -1.17,-0.49 -2.06,-0.49l-3.8 0 0 10.48 -8.26 0zm8.26 -16.84l6.12 0c1.6,0 2.86,-0.41 3.77,-1.21 0.91,-0.81 1.36,-2.03 1.36,-3.67 0,-3.32 -1.59,-4.98 -4.77,-4.98l-6.48 0 0 9.86zm44.81 16.84l0 -26.7 -9.71 0 0 -6.37 27.68 0 0 6.37 -9.7 0 0 26.7 -8.27 0zm34.94 0l0 -33.07 24.4 0 0 6.37 -16.13 0 0 6.93 14.23 0 0 6.47 -14.23 0 0 6.93 16.13 0 0 6.37 -24.4 0zm57.08 0.52c-5.37,0 -9.46,-1.37 -12.27,-4.11 -2.81,-2.74 -4.21,-7.01 -4.21,-12.79 0,-6.13 1.4,-10.53 4.21,-13.2 2.81,-2.67 6.9,-4.01 12.27,-4.01 5.38,0 9.47,1.34 12.28,4.01 2.81,2.67 4.21,7.07 4.21,13.2 0,5.78 -1.4,10.05 -4.21,12.79 -2.81,2.74 -6.9,4.11 -12.28,4.11zm0 -7.04c2.78,0 4.81,-0.8 6.09,-2.39 1.28,-1.59 1.93,-4.08 1.93,-7.47 0,-3.7 -0.65,-6.31 -1.93,-7.83 -1.28,-1.53 -3.31,-2.29 -6.09,-2.29 -2.8,0 -4.85,0.76 -6.13,2.29 -1.29,1.52 -1.93,4.13 -1.93,7.83 0,3.39 0.64,5.88 1.93,7.47 1.28,1.59 3.33,2.39 6.13,2.39z"/>
   <path class="fil1" d="M116.01 80.6l-16.55 0c-12.15,0 -21.29,-5.79 -26.07,-15.89l-6 -12.67 7.07 0 -1.4 -2.97 -10.24 -6.7 -17.59 -37.17c9.87,-5.08 19.86,-5.18 34.2,2.92 2.62,2.3 4.59,4.8 5.55,6.82l31.03 65.66z"/>
   <path class="fil2" d="M0 80.6l16.55 0c12.15,0 21.29,-5.79 26.07,-15.89l5.96 -12.67 -7.09 0 1.4 -2.97 10.24 -6.7 11.88 -25.24c2.42,-5.15 7.76,-9.66 14.42,-9.01 -10.24,-9.37 -23.53,-9.25 -31.91,-6.48 -7.37,2.44 -14.25,8.12 -16.66,13.3l-30.86 65.66z"/>
  </g>
 </g>
</svg>
